<mxfile host="app.diagrams.net" modified="2022-09-19T17:05:41.650Z" agent="5.0 (Windows NT 10.0; Win64; x64) AppleWebKit/537.36 (KHTML, like Gecko) Chrome/105.0.0.0 Safari/537.36" etag="rvMY_ZC0kUtWAROFOEDR" version="20.3.0" type="github">
  <diagram id="QtzbmXPJFVnT6pqp9JkW" name="Page-1">
    <mxGraphModel dx="2889" dy="1154" grid="1" gridSize="10" guides="1" tooltips="1" connect="1" arrows="1" fold="1" page="1" pageScale="1" pageWidth="827" pageHeight="1169" math="0" shadow="0">
      <root>
        <mxCell id="0" />
        <mxCell id="1" parent="0" />
        <mxCell id="-v57nNJkEWmGI66YnKV1-1" value="Uživatel&lt;br&gt;" style="shape=umlActor;verticalLabelPosition=bottom;verticalAlign=top;html=1;" vertex="1" parent="1">
          <mxGeometry x="-40" y="270" width="30" height="60" as="geometry" />
        </mxCell>
        <mxCell id="-v57nNJkEWmGI66YnKV1-2" value="Zobrazuje dostupné zboží" style="ellipse;whiteSpace=wrap;html=1;" vertex="1" parent="1">
          <mxGeometry x="310.5" y="30" width="139" height="90" as="geometry" />
        </mxCell>
        <mxCell id="-v57nNJkEWmGI66YnKV1-3" value="Uživatelské&lt;br&gt;rozhraní" style="shape=umlActor;verticalLabelPosition=bottom;verticalAlign=top;html=1;" vertex="1" parent="1">
          <mxGeometry x="610" y="150" width="30" height="60" as="geometry" />
        </mxCell>
        <mxCell id="-v57nNJkEWmGI66YnKV1-8" value="Databáze" style="shape=umlActor;verticalLabelPosition=bottom;verticalAlign=top;html=1;outlineConnect=0;" vertex="1" parent="1">
          <mxGeometry x="610" y="650" width="30" height="60" as="geometry" />
        </mxCell>
        <mxCell id="-v57nNJkEWmGI66YnKV1-9" value="" style="endArrow=none;html=1;rounded=0;exitX=1;exitY=0.5;exitDx=0;exitDy=0;" edge="1" parent="1" source="-v57nNJkEWmGI66YnKV1-2" target="-v57nNJkEWmGI66YnKV1-3">
          <mxGeometry width="50" height="50" relative="1" as="geometry">
            <mxPoint x="390" y="510" as="sourcePoint" />
            <mxPoint x="440" y="460" as="targetPoint" />
          </mxGeometry>
        </mxCell>
        <mxCell id="-v57nNJkEWmGI66YnKV1-10" value="Zobrazuje cenu a množství" style="ellipse;whiteSpace=wrap;html=1;" vertex="1" parent="1">
          <mxGeometry x="50" y="140" width="160" height="80" as="geometry" />
        </mxCell>
        <mxCell id="-v57nNJkEWmGI66YnKV1-13" value="Vybírá zboží" style="ellipse;whiteSpace=wrap;html=1;" vertex="1" parent="1">
          <mxGeometry x="269.5" y="260" width="180" height="80" as="geometry" />
        </mxCell>
        <mxCell id="-v57nNJkEWmGI66YnKV1-14" value="Zadává adresu doručení" style="ellipse;whiteSpace=wrap;html=1;" vertex="1" parent="1">
          <mxGeometry x="269.5" y="360" width="160" height="80" as="geometry" />
        </mxCell>
        <mxCell id="-v57nNJkEWmGI66YnKV1-15" value="Platí za zboží" style="ellipse;whiteSpace=wrap;html=1;" vertex="1" parent="1">
          <mxGeometry x="259.5" y="465" width="180" height="80" as="geometry" />
        </mxCell>
        <mxCell id="-v57nNJkEWmGI66YnKV1-16" value="" style="endArrow=none;html=1;rounded=0;" edge="1" parent="1" source="-v57nNJkEWmGI66YnKV1-13" target="-v57nNJkEWmGI66YnKV1-1">
          <mxGeometry width="50" height="50" relative="1" as="geometry">
            <mxPoint x="390" y="500" as="sourcePoint" />
            <mxPoint x="440" y="450" as="targetPoint" />
          </mxGeometry>
        </mxCell>
        <mxCell id="-v57nNJkEWmGI66YnKV1-17" value="" style="endArrow=none;html=1;rounded=0;entryX=-0.012;entryY=0.388;entryDx=0;entryDy=0;entryPerimeter=0;" edge="1" parent="1" source="-v57nNJkEWmGI66YnKV1-1" target="-v57nNJkEWmGI66YnKV1-14">
          <mxGeometry width="50" height="50" relative="1" as="geometry">
            <mxPoint x="160" y="190" as="sourcePoint" />
            <mxPoint x="440" y="450" as="targetPoint" />
          </mxGeometry>
        </mxCell>
        <mxCell id="-v57nNJkEWmGI66YnKV1-18" value="" style="endArrow=none;html=1;rounded=0;entryX=0.003;entryY=0.313;entryDx=0;entryDy=0;entryPerimeter=0;" edge="1" parent="1" source="-v57nNJkEWmGI66YnKV1-1" target="-v57nNJkEWmGI66YnKV1-15">
          <mxGeometry width="50" height="50" relative="1" as="geometry">
            <mxPoint x="130" y="230" as="sourcePoint" />
            <mxPoint x="440" y="450" as="targetPoint" />
          </mxGeometry>
        </mxCell>
        <mxCell id="-v57nNJkEWmGI66YnKV1-19" value="Uchovává informace o zboží na skladě" style="ellipse;whiteSpace=wrap;html=1;" vertex="1" parent="1">
          <mxGeometry x="310.5" y="585" width="170" height="80" as="geometry" />
        </mxCell>
        <mxCell id="-v57nNJkEWmGI66YnKV1-20" value="Sklad" style="shape=umlActor;verticalLabelPosition=bottom;verticalAlign=top;html=1;outlineConnect=0;" vertex="1" parent="1">
          <mxGeometry x="-40" y="545" width="30" height="60" as="geometry" />
        </mxCell>
        <mxCell id="-v57nNJkEWmGI66YnKV1-25" value="Obsahuje nabízené zboží" style="ellipse;whiteSpace=wrap;html=1;" vertex="1" parent="1">
          <mxGeometry x="100" y="585" width="150" height="80" as="geometry" />
        </mxCell>
        <mxCell id="-v57nNJkEWmGI66YnKV1-26" value="" style="endArrow=none;html=1;rounded=0;entryX=1;entryY=0.5;entryDx=0;entryDy=0;exitX=0;exitY=0.3333333333333333;exitDx=0;exitDy=0;exitPerimeter=0;" edge="1" parent="1" source="-v57nNJkEWmGI66YnKV1-8" target="-v57nNJkEWmGI66YnKV1-19">
          <mxGeometry width="50" height="50" relative="1" as="geometry">
            <mxPoint x="390" y="500" as="sourcePoint" />
            <mxPoint x="440" y="450" as="targetPoint" />
          </mxGeometry>
        </mxCell>
        <mxCell id="-v57nNJkEWmGI66YnKV1-27" value="" style="endArrow=none;html=1;rounded=0;exitX=0.02;exitY=0.363;exitDx=0;exitDy=0;exitPerimeter=0;" edge="1" parent="1" source="-v57nNJkEWmGI66YnKV1-25" target="-v57nNJkEWmGI66YnKV1-20">
          <mxGeometry width="50" height="50" relative="1" as="geometry">
            <mxPoint x="390" y="500" as="sourcePoint" />
            <mxPoint x="440" y="450" as="targetPoint" />
          </mxGeometry>
        </mxCell>
        <mxCell id="-v57nNJkEWmGI66YnKV1-28" value="Odesílá zboží" style="ellipse;whiteSpace=wrap;html=1;" vertex="1" parent="1">
          <mxGeometry x="100" y="700" width="145" height="80" as="geometry" />
        </mxCell>
        <mxCell id="-v57nNJkEWmGI66YnKV1-30" value="&amp;lt;&amp;lt;include&amp;gt;&amp;gt;" style="html=1;verticalAlign=bottom;endArrow=open;dashed=1;endSize=8;rounded=0;exitX=0.072;exitY=0.811;exitDx=0;exitDy=0;exitPerimeter=0;" edge="1" parent="1" source="-v57nNJkEWmGI66YnKV1-2" target="-v57nNJkEWmGI66YnKV1-10">
          <mxGeometry relative="1" as="geometry">
            <mxPoint x="450" y="470" as="sourcePoint" />
            <mxPoint x="370" y="470" as="targetPoint" />
          </mxGeometry>
        </mxCell>
        <mxCell id="-v57nNJkEWmGI66YnKV1-31" value="Zprostředkovává nákup a platbu" style="ellipse;whiteSpace=wrap;html=1;" vertex="1" parent="1">
          <mxGeometry x="280" y="150" width="159.5" height="80" as="geometry" />
        </mxCell>
        <mxCell id="-v57nNJkEWmGI66YnKV1-32" value="" style="endArrow=none;html=1;rounded=0;exitX=1;exitY=0.5;exitDx=0;exitDy=0;" edge="1" parent="1" source="-v57nNJkEWmGI66YnKV1-31" target="-v57nNJkEWmGI66YnKV1-3">
          <mxGeometry width="50" height="50" relative="1" as="geometry">
            <mxPoint x="390" y="490" as="sourcePoint" />
            <mxPoint x="440" y="440" as="targetPoint" />
          </mxGeometry>
        </mxCell>
        <mxCell id="-v57nNJkEWmGI66YnKV1-33" value="" style="endArrow=none;html=1;rounded=0;exitX=-0.007;exitY=0.413;exitDx=0;exitDy=0;exitPerimeter=0;" edge="1" parent="1" source="-v57nNJkEWmGI66YnKV1-28" target="-v57nNJkEWmGI66YnKV1-20">
          <mxGeometry width="50" height="50" relative="1" as="geometry">
            <mxPoint x="390" y="490" as="sourcePoint" />
            <mxPoint x="440" y="440" as="targetPoint" />
          </mxGeometry>
        </mxCell>
        <mxCell id="-v57nNJkEWmGI66YnKV1-34" value="Uchovává informace o platbách o obědnávkách" style="ellipse;whiteSpace=wrap;html=1;" vertex="1" parent="1">
          <mxGeometry x="310.5" y="700" width="170" height="80" as="geometry" />
        </mxCell>
        <mxCell id="-v57nNJkEWmGI66YnKV1-35" value="" style="endArrow=none;html=1;rounded=0;exitX=1;exitY=0.5;exitDx=0;exitDy=0;" edge="1" parent="1" source="-v57nNJkEWmGI66YnKV1-34" target="-v57nNJkEWmGI66YnKV1-8">
          <mxGeometry width="50" height="50" relative="1" as="geometry">
            <mxPoint x="390" y="590" as="sourcePoint" />
            <mxPoint x="440" y="540" as="targetPoint" />
          </mxGeometry>
        </mxCell>
        <mxCell id="-v57nNJkEWmGI66YnKV1-36" value="Správce eshopu" style="shape=umlActor;verticalLabelPosition=bottom;verticalAlign=top;html=1;outlineConnect=0;" vertex="1" parent="1">
          <mxGeometry x="-40" y="850" width="30" height="60" as="geometry" />
        </mxCell>
        <mxCell id="-v57nNJkEWmGI66YnKV1-42" value="Udržuje web" style="ellipse;whiteSpace=wrap;html=1;" vertex="1" parent="1">
          <mxGeometry x="102" y="840" width="167.5" height="80" as="geometry" />
        </mxCell>
        <mxCell id="-v57nNJkEWmGI66YnKV1-43" value="" style="endArrow=none;html=1;rounded=0;" edge="1" parent="1" source="-v57nNJkEWmGI66YnKV1-42" target="-v57nNJkEWmGI66YnKV1-36">
          <mxGeometry width="50" height="50" relative="1" as="geometry">
            <mxPoint x="390" y="690" as="sourcePoint" />
            <mxPoint x="440" y="640" as="targetPoint" />
          </mxGeometry>
        </mxCell>
        <mxCell id="-v57nNJkEWmGI66YnKV1-44" value="Platí web hosting" style="ellipse;whiteSpace=wrap;html=1;" vertex="1" parent="1">
          <mxGeometry x="390" y="840" width="120" height="80" as="geometry" />
        </mxCell>
        <mxCell id="-v57nNJkEWmGI66YnKV1-45" value="&amp;lt;&amp;lt;include&amp;gt;&amp;gt;" style="html=1;verticalAlign=bottom;endArrow=open;dashed=1;endSize=8;rounded=0;exitX=1;exitY=0.5;exitDx=0;exitDy=0;entryX=0;entryY=0.5;entryDx=0;entryDy=0;" edge="1" parent="1" source="-v57nNJkEWmGI66YnKV1-42" target="-v57nNJkEWmGI66YnKV1-44">
          <mxGeometry relative="1" as="geometry">
            <mxPoint x="423.6779999999998" y="950" as="sourcePoint" />
            <mxPoint x="295.3191086223687" y="1001.823255979356" as="targetPoint" />
          </mxGeometry>
        </mxCell>
      </root>
    </mxGraphModel>
  </diagram>
</mxfile>
